<svg xmlns="http://www.w3.org/2000/svg" width="24.653" height="20.198" viewBox="0 0 24.653 20.198">
  <g id="black-back-arrow" transform="translate(-515.826 -6269)">
    <g id="Group_112" data-name="Group 112">
      <path id="Path_857" data-name="Path 857" d="M539,6277.62H522.189a.564.564,0,0,1-.4-.96l5.148-5.137a1.489,1.489,0,0,0,0-2.1,1.513,1.513,0,0,0-2.1,0l-8.637,8.625a1.367,1.367,0,0,0-.18.226,2.6,2.6,0,0,0-.136.248l-.056.17c0,.041,0,.082,0,.124a1.473,1.473,0,0,0,0,.282,1.6,1.6,0,0,0,0,.294v.259a1.026,1.026,0,0,0,.09.181l.057.113a1.39,1.39,0,0,0,.169.192l8.637,8.636a1.513,1.513,0,0,0,2.1,0,1.479,1.479,0,0,0,0-2.088l-5.092-5.148a.564.564,0,0,1,.4-.96H539a1.479,1.479,0,1,0,0-2.958Z"/>
    </g>
  </g>
</svg>
