<svg xmlns="http://www.w3.org/2000/svg" width="42.286" height="42.287" viewBox="0 0 42.286 42.287">
  <g id="Group_367" data-name="Group 367" transform="translate(-3557.357 -1217.071)">
    <path id="Path_3057" data-name="Path 3057" d="M3578.5,1217.071a21.143,21.143,0,1,0,21.143,21.144A21.143,21.143,0,0,0,3578.5,1217.071Zm0,38.443a17.3,17.3,0,1,1,17.3-17.3A17.3,17.3,0,0,1,3578.5,1255.514Z" fill="#374047"/>
    <path id="Path_3058" data-name="Path 3058" d="M3588.111,1236.292h-7.689V1228.6a1.922,1.922,0,0,0-3.844,0v7.688h-7.689a1.922,1.922,0,0,0,0,3.845h7.689v7.688a1.922,1.922,0,0,0,3.844,0v-7.688h7.689a1.922,1.922,0,0,0,0-3.845Z" fill="#374047"/>
  </g>
</svg>
