<svg xmlns="http://www.w3.org/2000/svg" viewBox="0 0 32.89 44.87"><defs><style>.cls-1{fill:#1e282e;}</style></defs><title>Withdrawal</title><g id="Layer_2" data-name="Layer 2"><g id="L"><g id="Withdrawal"><path class="cls-1" d="M12,28.48H9.49L9,29.62H8.07l2.21-4.92h.9l2.21,4.92h-1Zm-.3-.72-.93-2.15L9.8,27.76Z"/><path class="cls-1" d="M19.14,30.11a1.72,1.72,0,0,1-.58.43,1.64,1.64,0,0,1-.71.15,2,2,0,0,1-.93-.23,4,4,0,0,1-1-.79,2.67,2.67,0,0,1-1.22-.4,2.32,2.32,0,0,1-.84-.89,2.64,2.64,0,0,1,0-2.52,2.42,2.42,0,0,1,1-.9,2.75,2.75,0,0,1,1.35-.33A2.79,2.79,0,0,1,17.6,25a2.42,2.42,0,0,1,.95.9,2.47,2.47,0,0,1,.34,1.3,2.58,2.58,0,0,1-.23,1.08,2.5,2.5,0,0,1-1.61,1.34,1.56,1.56,0,0,0,.4.32,1,1,0,0,0,.42.09,1.12,1.12,0,0,0,.85-.39Zm-4.4-2.06a1.58,1.58,0,0,0,.62.61,1.89,1.89,0,0,0,1.77,0,1.58,1.58,0,0,0,.62-.61,1.91,1.91,0,0,0,0-1.78,1.68,1.68,0,0,0-.62-.62,1.89,1.89,0,0,0-1.77,0,1.68,1.68,0,0,0-.62.62,1.91,1.91,0,0,0,0,1.78Z"/><path class="cls-1" d="M23.07,29.62l-1-1.44h-1.3v1.44h-.91V24.7h2a2.68,2.68,0,0,1,1.11.21,1.58,1.58,0,0,1,.73.61,1.66,1.66,0,0,1,.25.93,1.64,1.64,0,0,1-.27.95,1.6,1.6,0,0,1-.77.6l1.13,1.62Zm-.33-3.89a1.36,1.36,0,0,0-.9-.26H20.77v2h1.07a1.36,1.36,0,0,0,.9-.25.9.9,0,0,0,.31-.73A.86.86,0,0,0,22.74,25.73Z"/><path class="cls-1" d="M20.93,40.3a12.71,12.71,0,1,1,0-23.79A12.71,12.71,0,0,1,20.93,40.3Zm0-22.16a11.21,11.21,0,1,0,5.77,5.77A11.21,11.21,0,0,0,20.93,18.14Z"/><path class="cls-1" d="M32.89,28.41A16.45,16.45,0,1,1,13.45,12.25v-4c-3.91,0-4.17.15-4.42-.47S8.79,7.34,15.91.22A.75.75,0,0,1,17,.22h0c7.09,7.09,7.17,6.89,6.89,7.54s-.54.47-4.43.47v4A16.52,16.52,0,0,1,32.89,28.41ZM18.69,6.73h2.68L16.44,1.81,11.52,6.73H14.2a.76.76,0,0,1,.75.75v5.41a.75.75,0,0,1-.64.75,14.95,14.95,0,1,0,4.27,0,.75.75,0,0,1-.64-.75V7.48A.75.75,0,0,1,18.69,6.73Z"/></g></g></g></svg>