<svg xmlns="http://www.w3.org/2000/svg" viewBox="0 0 20 20"><title>Quation Mark </title><g id="Layer_2" data-name="Layer 2"><g id="Layer_1-2" data-name="Layer 1"><path d="M16.35,0H3.65A3.66,3.66,0,0,0,0,3.65v12.7A3.66,3.66,0,0,0,3.65,20h12.7A3.66,3.66,0,0,0,20,16.35V3.65A3.66,3.66,0,0,0,16.35,0Zm2.38,16.35a2.39,2.39,0,0,1-2.38,2.38H3.65a2.39,2.39,0,0,1-2.38-2.38V3.65A2.39,2.39,0,0,1,3.65,1.27h12.7a2.39,2.39,0,0,1,2.38,2.38v12.7Z"/><path d="M10,4.05a3.1,3.1,0,0,0-3.1,3.1.63.63,0,0,0,1.26,0,1.84,1.84,0,1,1,3.68,0c0,.58-.43,1-1.12,1.54a2.81,2.81,0,0,0-1.35,2.06v2a.63.63,0,0,0,1.26,0v-2c0-.35.42-.69.9-1.08A3.32,3.32,0,0,0,13.1,7.15,3.1,3.1,0,0,0,10,4.05Z"/><path d="M10,14.33a.81.81,0,1,0,.81.81A.81.81,0,0,0,10,14.33Z"/></g></g></svg>