<svg xmlns="http://www.w3.org/2000/svg" xmlns:xlink="http://www.w3.org/1999/xlink" viewBox="0 0 190.64 184.4"><defs><style>.cls-1{fill:#1e282e;}.cls-2{fill:url(#linear-gradient);}.cls-3{fill:url(#linear-gradient-2);}</style><linearGradient id="linear-gradient" x1="20.62" y1="151.53" x2="95.99" y2="151.53" gradientUnits="userSpaceOnUse"><stop offset="0" stop-color="#fbb040"/><stop offset="0.04" stop-color="#fbb040"/><stop offset="0.39" stop-color="#fec007"/><stop offset="1" stop-color="#ffde17"/></linearGradient><linearGradient id="linear-gradient-2" x1="100.65" y1="32.86" x2="176.03" y2="32.86" xlink:href="#linear-gradient"/></defs><title>Sent For Verification</title><g id="Layer_2" data-name="Layer 2"><g id="Layer_1-2" data-name="Layer 1"><g id="Outline"><path class="cls-1" d="M75.72,60.3a13.11,13.11,0,1,0-15.26,0,3.93,3.93,0,0,0-1.84,6.4A3.91,3.91,0,0,0,58,71a3.85,3.85,0,0,0-1.7-.39h-.22a3.91,3.91,0,0,0-3.7-5.23H39.28a3.93,3.93,0,1,0,0,7.85h.23A3.92,3.92,0,0,0,39.56,76a4,4,0,0,0-1.59.86,3.94,3.94,0,0,0-2.62-1H22.26a3.81,3.81,0,0,0-1.69.39,3.93,3.93,0,0,0-1-4.71,13.11,13.11,0,1,0-14.29-.92H3.93A3.92,3.92,0,0,0,1,77.17,3.93,3.93,0,0,0,2.9,83.58a3.93,3.93,0,0,0,2.2,5.1A4,4,0,0,0,6.55,89H19.64a3.89,3.89,0,0,0,2.62-1,3.89,3.89,0,0,0,2.62,1H38a3.89,3.89,0,0,0,2.62-1,3.89,3.89,0,0,0,2.62,1H56.3a3.89,3.89,0,0,0,2.62-1,3.89,3.89,0,0,0,2.62,1H74.63a3.92,3.92,0,0,0,1-7.71,3.93,3.93,0,0,0,0-2.9,3.92,3.92,0,0,0,1.89-6.41,3.9,3.9,0,0,0,0-5.23,3.93,3.93,0,0,0-.3-5.55,4.09,4.09,0,0,0-1.54-.85ZM57.61,49.67A10.48,10.48,0,1,1,68.09,60.15,10.48,10.48,0,0,1,57.61,49.67Zm3.93,13.1H74.63a1.31,1.31,0,1,1,0,2.62H61.54a1.31,1.31,0,0,1,0-2.62Zm14.4,6.54a1.3,1.3,0,0,1-1.31,1.31H61.54a1.31,1.31,0,1,1,0-2.62H74.63A1.31,1.31,0,0,1,75.94,69.31ZM73.33,79.79A1.32,1.32,0,0,1,72,81.1H58.92a1.31,1.31,0,0,1,0-2.62H72A1.32,1.32,0,0,1,73.33,79.79ZM38,69.31A1.32,1.32,0,0,1,39.28,68h13.1a1.31,1.31,0,0,1,0,2.62H39.28A1.31,1.31,0,0,1,38,69.31ZM56.3,73.24a1.31,1.31,0,0,1,0,2.62H43.21a1.31,1.31,0,1,1,0-2.62ZM40.59,78.48h13.1a1.31,1.31,0,0,1,0,2.62H40.59a1.31,1.31,0,1,1,0-2.62Zm-18.33,0H35.35a1.31,1.31,0,0,1,0,2.62H22.26a1.31,1.31,0,1,1,0-2.62ZM2.62,60.15A10.48,10.48,0,1,1,13.1,70.62,10.48,10.48,0,0,1,2.62,60.15ZM3.93,73.24H17a1.31,1.31,0,0,1,0,2.62H3.93a1.31,1.31,0,1,1,0-2.62Zm0,5.24H17a1.31,1.31,0,0,1,0,2.62H3.93a1.31,1.31,0,1,1,0-2.62Zm15.71,7.86H6.55a1.31,1.31,0,1,1,0-2.62H19.64a1.31,1.31,0,0,1,0,2.62Zm18.33,0H24.88a1.31,1.31,0,1,1,0-2.62H38a1.31,1.31,0,0,1,0,2.62Zm18.33,0H43.21a1.31,1.31,0,0,1,0-2.62H56.3a1.31,1.31,0,0,1,0,2.62Zm18.33,0H61.54a1.31,1.31,0,1,1,0-2.62H74.63a1.31,1.31,0,0,1,0,2.62Zm0-10.48H61.54a1.31,1.31,0,0,1,0-2.62H74.63a1.31,1.31,0,0,1,0,2.62Z"/><path class="cls-1" d="M66.78,56.05v1.48H69.4V56.05A3.74,3.74,0,0,0,70,49.14L67.4,47.86a1.1,1.1,0,0,1-.5-1.5,1.12,1.12,0,0,1,1-.61h.38a1.12,1.12,0,0,1,1.12,1.11v.2H72v-.2A3.76,3.76,0,0,0,69.4,43.3V41.82H66.78V43.3a3.74,3.74,0,0,0-.55,6.91l2.55,1.27a1.12,1.12,0,0,1-.5,2.12H67.9a1.12,1.12,0,0,1-1.12-1.12v-.19H64.16v.19A3.74,3.74,0,0,0,66.78,56.05Z"/><path class="cls-1" d="M14.41,53.77V52.29H11.79v1.48a3.74,3.74,0,0,0-.56,6.91L13.79,62a1.12,1.12,0,0,1-.5,2.12H12.9A1.12,1.12,0,0,1,11.79,63v-.19H9.17V63a3.73,3.73,0,0,0,2.62,3.56V68h2.62V66.52a3.73,3.73,0,0,0,2.44-4.68A3.69,3.69,0,0,0,15,59.62L12.4,58.34a1.12,1.12,0,0,1,.5-2.12h.39a1.13,1.13,0,0,1,1.12,1.12v.19H17v-.19A3.75,3.75,0,0,0,14.41,53.77Z"/><path class="cls-1" d="M45.83,20.87H65.47V34h2.62V19.56a1.31,1.31,0,0,0-1.31-1.31H65.47V11.7a1.31,1.31,0,0,0-1.31-1.31l-.2,0L46.94,13a1.31,1.31,0,0,0-1.11,1.29v3.93H44.52a1.31,1.31,0,0,0-1.31,1.31V37.89h2.62Zm2.62-5.42,14.4-2.22v5H48.45Z"/><path class="cls-1" d="M18.33,28.72H36.66V39.2h2.62V27.42A1.3,1.3,0,0,0,38,26.11H36.66V22.18a1.3,1.3,0,0,0-1.31-1.31h-1.3V16.94a1.31,1.31,0,0,0-1.31-1.31H31.43V13H28.81v2.62H26.19V10.39H23.57v5.24H22.26A1.31,1.31,0,0,0,21,16.94v3.93H19.64a1.31,1.31,0,0,0-1.31,1.31v3.93H17a1.31,1.31,0,0,0-1.31,1.31v17h2.62Zm5.24-10.47h7.86v2.62H23.57ZM21,23.49h13.1v2.62H21Z"/><path class="cls-1" d="M52.38,62.77V40.51a1.31,1.31,0,0,0-1.31-1.31H50.9L30,41.83a1.31,1.31,0,0,0-1.14,1.3V73.24h2.62v-29L49.76,42v5.07H38v2.61H49.76v2.62H38v2.62H49.76v2.62H38v2.62H49.76v2.62Z"/><path class="cls-1" d="M21,31.34h2.62V34H21Z"/><path class="cls-1" d="M22.26,39.2h2.62v2.62H22.26Z"/><path class="cls-1" d="M31.43,32.65h2.62v2.62H31.43Z"/><path class="cls-1" d="M48.45,30h2.62v2.62H48.45Z"/><path class="cls-1" d="M55,23.49h2.62v2.62H55Z"/><path class="cls-1" d="M55,36.58h2.62V39.2H55Z"/><path class="cls-1" d="M60.23,31.34h2.62V34H60.23Z"/></g><path class="cls-1" d="M176.07,100.06a.91.91,0,1,0-1,1.5,31.7,31.7,0,0,1,3.95,3.17L174.77,109a25.33,25.33,0,0,0-16.37-6.79v-6a31.23,31.23,0,0,1,9.93,1.9.91.91,0,1,0,.64-1.7h0a33.14,33.14,0,1,0,7.12,3.65Zm6.78,26.55a25.27,25.27,0,0,0-6.8-16.37l4.23-4.23a31.34,31.34,0,0,1,8.53,20.6Zm-42.63,19.46a25.23,25.23,0,0,0,16.37,6.79v6A31.23,31.23,0,0,1,136,150.28Zm18.18,6.79a25.23,25.23,0,0,0,16.37-6.79l4.21,4.21a31.21,31.21,0,0,1-20.58,8.54Zm-.9-1.79a23.56,23.56,0,1,1,23.56-23.56A23.56,23.56,0,0,1,157.5,151.07Zm-25.35-24.46h-6A31.21,31.21,0,0,1,134.73,106l4.21,4.2A25.26,25.26,0,0,0,132.15,126.61ZM140.22,109l-4.21-4.2a31.14,31.14,0,0,1,20.58-8.54v6A25.33,25.33,0,0,0,140.22,109Zm-14,19.47h6a25.23,25.23,0,0,0,6.79,16.37L134.73,149A31.25,31.25,0,0,1,126.19,128.42ZM180.26,149l-4.21-4.21a25.29,25.29,0,0,0,6.8-16.37h6A31.25,31.25,0,0,1,180.26,149Zm-20.95-8.9a.91.91,0,0,1-.91.91h-2.83a.91.91,0,1,1,0-1.81h2.83A.9.9,0,0,1,159.31,140.1ZM171,123.22l-2.59,17a.9.9,0,0,1-.89.77H164a.91.91,0,0,1,0-1.81h2.77l2.08-13.71-6.54,6a.91.91,0,0,1-1.28-.05.85.85,0,0,1-.14-.19L157.5,125l-3.35,6.27a.89.89,0,0,1-1.22.37.64.64,0,0,1-.19-.13l-6.55-6,2.09,13.71H150a.91.91,0,1,1,0,1.81H147.5a.91.91,0,0,1-.9-.77l-2.59-17a.91.91,0,0,1,.76-1,.89.89,0,0,1,.75.22l7.58,7,3.6-6.74a.91.91,0,0,1,1.6,0l3.59,6.74,7.58-7a.9.9,0,0,1,1.28.06A.89.89,0,0,1,171,123.22Zm-13.48-2.15a3.53,3.53,0,1,0-3.53-3.52h0A3.53,3.53,0,0,0,157.5,121.07Zm0-5.24a1.72,1.72,0,1,1-1.72,1.72h0A1.72,1.72,0,0,1,157.5,115.83ZM170.09,114a3.53,3.53,0,1,0,3.52,3.53h0A3.53,3.53,0,0,0,170.09,114Zm0,5.24a1.72,1.72,0,1,1,1.71-1.71A1.72,1.72,0,0,1,170.09,119.26Zm-21.65-1.71a3.53,3.53,0,1,0-3.53,3.52h0A3.53,3.53,0,0,0,148.44,117.55Zm-5.25,0a1.72,1.72,0,1,1,1.72,1.71h0a1.72,1.72,0,0,1-1.72-1.71Z"/><path class="cls-2" d="M77.15,154.88A2.06,2.06,0,0,0,76.3,157l2.24,10.57A48.79,48.79,0,0,1,25,124.08c-.11-1.13-.19-2.26-.23-3.4a2.07,2.07,0,1,0-4.13.11v0A52.89,52.89,0,0,0,75.21,172c1.4,0,2.8-.15,4.19-.31l2.35,11.12a2.07,2.07,0,0,0,3.76.7l10.15-15.6a2.07,2.07,0,0,0-.61-2.86l-15.6-10.15A2.05,2.05,0,0,0,77.15,154.88Z"/><path class="cls-3" d="M101.59,19.4l15.6,10.15a2.07,2.07,0,0,0,2.86-.61,2,2,0,0,0,.29-1.55l-2.23-10.57a48.78,48.78,0,0,1,53.55,43.49c.12,1.13.19,2.27.23,3.41a2.07,2.07,0,0,0,2.07,2H174a2.07,2.07,0,0,0,2-2.14h0a52.9,52.9,0,0,0-54.64-51.12c-1.38,0-2.76.14-4.13.3L114.89,1.64a2.07,2.07,0,0,0-3.75-.7L101,16.54a2.08,2.08,0,0,0,.6,2.86Z"/></g></g></svg>