<svg xmlns="http://www.w3.org/2000/svg" width="34.522" height="34.522" viewBox="0 0 34.522 34.522">
  <path id="Path_555" data-name="Path 555" d="M1590.493,2835.944a1.3,1.3,0,0,0-1.84,0l-15.609,15.568-5.631-6.117a1.3,1.3,0,1,0-1.914,1.763l6.548,7.112a1.3,1.3,0,0,0,.93.419h.028a1.3,1.3,0,0,0,.918-.38l16.567-16.523A1.3,1.3,0,0,0,1590.493,2835.944Zm-.314,11.24a1.3,1.3,0,0,0-1.3,1.3,14.659,14.659,0,1,1-14.659-14.659,1.3,1.3,0,1,0,0-2.6,17.261,17.261,0,1,0,17.261,17.261A1.3,1.3,0,0,0,1590.179,2847.184Z" transform="translate(-1556.958 -2831.224)" fill="#fff"/>
</svg>
