<svg xmlns="http://www.w3.org/2000/svg" width="34.521" height="34.522" viewBox="0 0 34.521 34.522">
  <g id="rejected-icon-white" transform="translate(-1556.95 -5193.478)">
    <g id="Group_34" data-name="Group 34">
      <g id="Group_33" data-name="Group 33">
        <g id="_04_Close" data-name="04 Close">
          <g id="Group_32" data-name="Group 32">
            <path id="Path_245" data-name="Path 245" d="M1589.814,5203.357A17.256,17.256,0,1,0,1574.2,5228h.209a17.338,17.338,0,0,0,9.052-2.683,1.684,1.684,0,0,0-1.806-2.844,13.879,13.879,0,0,1-14.8.054,13.9,13.9,0,1,1,21.165-10.239,1.685,1.685,0,0,0,3.35.371,17.307,17.307,0,0,0-1.55-9.3Z" fill="#fff"/>
            <path id="Path_246" data-name="Path 246" d="M1580.06,5204.887a1.683,1.683,0,0,0-2.386,0l-3.464,3.471-3.465-3.464a1.687,1.687,0,0,0-2.386,2.386l3.464,3.464-3.464,3.465a1.687,1.687,0,0,0,2.386,2.386l3.465-3.464,3.464,3.464a1.687,1.687,0,1,0,2.386-2.386l-3.464-3.471,3.464-3.465a1.683,1.683,0,0,0,0-2.386Z" fill="#fff"/>
          </g>
        </g>
      </g>
    </g>
  </g>
</svg>
