<svg xmlns="http://www.w3.org/2000/svg" width="34.522" height="34.522" viewBox="0 0 34.522 34.522">
  <g id="pending-icon-white" transform="translate(-1573.486 -4014.739)">
    <g id="_21" data-name=" 21">
      <path id="Path_4906" data-name="Path 4906" d="M1590.747,4049.261A17.261,17.261,0,1,1,1608.008,4032a18.79,18.79,0,0,1-.41,3.8,1.1,1.1,0,0,1-2.158-.474,15.5,15.5,0,0,0,.41-3.323,15.1,15.1,0,1,0-8.112,13.4,1.078,1.078,0,1,1,1.218,1.78,1.054,1.054,0,0,1-.226.118A17.066,17.066,0,0,1,1590.747,4049.261Z"/>
      <path id="Path_4907" data-name="Path 4907" d="M1602.614,4044.946a1.079,1.079,0,0,1-1.079-1.079v-8.631a1.079,1.079,0,0,1,2.158,0v8.631A1.079,1.079,0,0,1,1602.614,4044.946Z"/>
      <circle id="Ellipse_10" data-name="Ellipse 10" cx="1.079" cy="1.079" r="1.079" transform="translate(1601.535 4047.103)"/>
      <path id="Path_4908" data-name="Path 4908" d="M1584.447,4038a1.1,1.1,0,0,1,.3-1.51l6-3.992v-10.205a1.079,1.079,0,1,1,2.158,0v10.788a1.1,1.1,0,0,1-.475.906l-6.473,4.315A1.187,1.187,0,0,1,1584.447,4038Z"/>
    </g>
  </g>
</svg>
